<?xml version="1.0" encoding="UTF-8" standalone="no"?>
<!DOCTYPE svg PUBLIC "-//W3C//DTD SVG 1.1//EN" "http://www.w3.org/Graphics/SVG/1.1/DTD/svg11.dtd">
<svg width="100%" height="100%" viewBox="0 0 448 162" version="1.1" xmlns="http://www.w3.org/2000/svg" xmlns:xlink="http://www.w3.org/1999/xlink" xml:space="preserve" xmlns:serif="http://www.serif.com/" style="fill-rule:evenodd;clip-rule:evenodd;stroke-linejoin:round;stroke-miterlimit:1.41421;">
    <g transform="matrix(1,0,0,1,-6920.23,-2867.73)">
        <g transform="matrix(0.564853,0,0,1.52837,5974.46,318.397)">
            <g transform="matrix(1,0,0,0.609423,0,509.532)">
                <g transform="matrix(1.58359,0,0,1.00316,893.119,955.207)">
                    <path d="M553.307,942.751C553.307,942.751 493.343,987.191 493.343,1031.17C493.343,1062.86 520.212,1088.58 553.307,1088.58C586.402,1088.58 613.27,1062.86 613.27,1031.17C613.27,987.191 553.307,942.751 553.307,942.751Z" style="fill:white;"/>
                </g>
                <g transform="matrix(2.69686,0,0,1.63548,951.365,1351.92)">
                    <path d="M360.097,396.12L360.097,390.97L353.597,390.97L353.597,417.72L360.097,417.72L360.097,404.82C360.097,399.97 363.547,396.67 369.197,397.02L369.197,390.72C365.047,390.77 361.897,392.62 360.097,396.12Z" style="fill:rgb(0,41,64);fill-rule:nonzero;"/>
                    <path d="M384.897,390.77C376.897,390.77 371.297,396.27 371.297,404.42C371.297,412.47 376.747,417.97 385.047,417.97C389.747,417.97 393.647,416.27 396.297,413.37L392.797,409.72C390.897,411.67 388.347,412.72 385.597,412.72C381.697,412.72 378.797,410.42 377.947,406.62L397.697,406.62C398.347,396.92 394.297,390.77 384.897,390.77ZM377.797,402.27C378.397,398.32 381.097,395.82 384.947,395.82C388.997,395.82 391.647,398.32 391.797,402.27L377.797,402.27Z" style="fill:rgb(0,41,64);fill-rule:nonzero;"/>
                    <path d="M422.647,380.62L422.647,395.37C420.697,392.37 417.597,390.72 413.497,390.72C405.997,390.72 400.897,396.17 400.897,404.27C400.897,412.42 405.997,418.02 413.647,418.02C417.647,418.02 420.747,416.37 422.647,413.42L422.647,417.72L429.147,417.72L429.147,380.62L422.647,380.62ZM415.047,412.57C410.547,412.57 407.497,409.22 407.447,404.42C407.497,399.67 410.597,396.27 415.047,396.27C419.547,396.27 422.647,399.62 422.647,404.42C422.647,409.22 419.547,412.57 415.047,412.57Z" style="fill:rgb(0,41,64);fill-rule:nonzero;"/>
                </g>
                <g transform="matrix(2.69686,0,0,1.63548,2125.17,2035.09)">
                    <path d="M19.8,-26.95C15.8,-26.95 12.7,-25.3 10.8,-22.35L10.8,-37.1L4.3,-37.1L4.3,0L10.8,0L10.8,-4.35C12.75,-1.4 15.85,0.25 19.9,0.25C27.5,0.25 32.45,-5.2 32.45,-13.25C32.45,-21.45 27.35,-26.95 19.8,-26.95ZM18.35,-5.35C13.9,-5.35 10.8,-8.65 10.8,-13.45C10.8,-18.15 13.9,-21.5 18.35,-21.5C22.75,-21.5 25.85,-18.15 25.85,-13.45C25.85,-8.7 22.75,-5.35 18.35,-5.35Z" style="fill:white;fill-rule:nonzero;"/>
                    <path d="M60.3,0L60.25,-17.5C60.2,-23.45 56.25,-27 49.25,-27C44.35,-27 41.35,-25.85 37.5,-23.7L39.85,-19.2C42.6,-20.85 45.3,-21.7 47.8,-21.7C51.8,-21.7 53.85,-19.85 53.85,-16.75L53.85,-16.05L46.05,-16.05C39.55,-16 35.9,-12.95 35.9,-8C35.9,-3.25 39.5,0.3 45.25,0.3C49.05,0.3 52.05,-0.9 53.9,-3.25L53.9,0L60.3,0ZM46.8,-4.7C43.85,-4.7 42.05,-6.15 42.05,-8.4C42.05,-10.75 43.65,-11.7 47.1,-11.7L53.85,-11.7L53.85,-9.3C53.5,-6.7 50.55,-4.7 46.8,-4.7Z" style="fill:white;fill-rule:nonzero;"/>
                    <path d="M83.7,-27C79.35,-26.95 76,-25.3 74.1,-21.75L74.1,-26.75L67.6,-26.75L67.6,0L74.1,0L74.1,-13.15C74.1,-17.55 76.7,-20.8 81.1,-20.85C84.8,-20.85 87.05,-18.55 87.05,-14.8L87.05,0L93.6,0L93.6,-16.7C93.6,-23.05 89.85,-27 83.7,-27Z" style="fill:white;fill-rule:nonzero;"/>
                    <path d="M119,0L126.75,0L116.25,-16.4L126.15,-26.7L118.65,-26.7L107.65,-15.6L107.65,-37.1L101.15,-37.1L101.15,0L107.65,0L107.65,-7.4L111.75,-11.7L119,0Z" style="fill:white;fill-rule:nonzero;"/>
                </g>
                <g transform="matrix(2.69686,0,0,1.63548,1886.44,1961.61)">
                    <path d="M18.2,-6.55C16.75,-5.85 15.5,-5.45 14.4,-5.45C12.65,-5.45 11.6,-6.3 11.6,-8.85L11.6,-20.9L19.25,-20.9L19.25,-25.65L11.6,-25.65L11.6,-33L5.15,-33L5.15,-25.65L1.35,-25.65L1.4,-20.9L5.15,-20.9L5.15,-7.7C5.15,-2.2 8.65,0.3 13,0.3C15.35,0.3 17.65,-0.4 19.7,-1.65L18.2,-6.55Z" style="fill:white;fill-rule:nonzero;"/>
                    <path d="M41.2,-27C36.8,-26.95 33.45,-25.3 31.55,-21.65L31.55,-37.1L25.05,-37.1L25.05,0L31.55,0L31.55,-13.15C31.55,-17.55 34.2,-20.8 38.6,-20.85C42.3,-20.85 44.55,-18.55 44.55,-14.8L44.55,0L51.1,0L51.1,-16.7C51.1,-23.05 47.35,-27 41.2,-27Z" style="fill:white;fill-rule:nonzero;"/>
                    <path d="M69.55,-26.95C61.55,-26.95 55.95,-21.45 55.95,-13.3C55.95,-5.25 61.4,0.25 69.7,0.25C74.4,0.25 78.3,-1.45 80.95,-4.35L77.45,-8C75.55,-6.05 73,-5 70.25,-5C66.35,-5 63.45,-7.3 62.6,-11.1L82.35,-11.1C83,-20.8 78.95,-26.95 69.55,-26.95ZM62.45,-15.45C63.05,-19.4 65.75,-21.9 69.6,-21.9C73.65,-21.9 76.3,-19.4 76.45,-15.45L62.45,-15.45Z" style="fill:white;fill-rule:nonzero;"/>
                </g>
                <g transform="matrix(1.99582,0,0,1.21034,-1258.7,-1939.91)">
                    <path d="M1701.46,3299.23L1701.46,3316.73L1703.46,3316.73L1703.46,3309.18L1711.63,3309.18L1711.63,3307.35L1703.46,3307.35L1703.46,3301.08L1712.58,3301.08L1712.58,3299.23L1701.46,3299.23Z" style="fill:white;fill-opacity:0.25;fill-rule:nonzero;"/>
                    <path d="M1723.06,3299.18C1717.93,3299.18 1713.88,3303.05 1713.88,3307.98C1713.88,3312.9 1717.93,3316.8 1723.06,3316.8C1728.16,3316.8 1732.21,3312.9 1732.21,3307.98C1732.21,3303.05 1728.16,3299.18 1723.06,3299.18ZM1723.06,3301.03C1726.96,3301.03 1730.16,3304.1 1730.16,3307.98C1730.16,3311.85 1726.96,3314.98 1723.06,3314.98C1719.16,3314.98 1715.91,3311.85 1715.91,3307.98C1715.91,3304.1 1719.16,3301.03 1723.06,3301.03Z" style="fill:white;fill-opacity:0.25;fill-rule:nonzero;"/>
                    <path d="M1737.46,3309.53L1737.46,3299.23L1735.46,3299.23L1735.46,3309.53C1735.46,3314.1 1738.23,3316.8 1742.83,3316.8C1747.41,3316.8 1750.16,3314.1 1750.16,3309.53L1750.16,3299.23L1748.16,3299.23L1748.16,3309.53C1748.16,3312.98 1746.16,3314.98 1742.83,3314.98C1739.51,3314.98 1737.46,3312.98 1737.46,3309.53Z" style="fill:white;fill-opacity:0.25;fill-rule:nonzero;"/>
                    <path d="M1755.06,3299.23L1755.06,3316.73L1757.06,3316.73L1757.06,3302.53L1767.56,3316.73L1769.61,3316.73L1769.61,3299.23L1767.63,3299.23L1767.63,3313.45L1757.13,3299.23L1755.06,3299.23Z" style="fill:white;fill-opacity:0.25;fill-rule:nonzero;"/>
                    <path d="M1782.01,3299.23L1774.93,3299.23L1774.93,3316.73L1781.93,3316.73C1787.08,3316.73 1791.01,3312.95 1791.01,3307.98C1791.01,3303 1787.11,3299.23 1782.01,3299.23ZM1782.03,3314.88L1776.93,3314.88L1776.93,3301.08L1781.96,3301.08C1785.88,3301.08 1788.98,3304.05 1788.98,3308C1788.98,3311.93 1785.93,3314.88 1782.03,3314.88Z" style="fill:white;fill-opacity:0.25;fill-rule:nonzero;"/>
                    <path d="M1807.26,3316.73L1809.43,3316.73L1801.61,3299.23L1799.53,3299.23L1791.68,3316.73L1793.81,3316.73L1795.76,3312.25L1805.28,3312.25L1807.26,3316.73ZM1796.58,3310.4L1800.51,3301.4L1804.48,3310.4L1796.58,3310.4Z" style="fill:white;fill-opacity:0.25;fill-rule:nonzero;"/>
                    <path d="M1808.16,3299.23L1808.16,3301.08L1813.86,3301.08L1813.86,3316.73L1815.86,3316.73L1815.86,3301.08L1821.58,3301.08L1821.58,3299.23L1808.16,3299.23Z" style="fill:white;fill-opacity:0.25;fill-rule:nonzero;"/>
                    <rect x="1824.48" y="3299.23" width="2" height="17.5" style="fill:white;fill-opacity:0.25;fill-rule:nonzero;"/>
                    <path d="M1839.31,3299.18C1834.18,3299.18 1830.13,3303.05 1830.13,3307.98C1830.13,3312.9 1834.18,3316.8 1839.31,3316.8C1844.41,3316.8 1848.46,3312.9 1848.46,3307.98C1848.46,3303.05 1844.41,3299.18 1839.31,3299.18ZM1839.31,3301.03C1843.21,3301.03 1846.41,3304.1 1846.41,3307.98C1846.41,3311.85 1843.21,3314.98 1839.31,3314.98C1835.41,3314.98 1832.16,3311.85 1832.16,3307.98C1832.16,3304.1 1835.41,3301.03 1839.31,3301.03Z" style="fill:white;fill-opacity:0.25;fill-rule:nonzero;"/>
                    <path d="M1852.11,3299.23L1852.11,3316.73L1854.11,3316.73L1854.11,3302.53L1864.61,3316.73L1866.66,3316.73L1866.66,3299.23L1864.68,3299.23L1864.68,3313.45L1854.18,3299.23L1852.11,3299.23Z" style="fill:white;fill-opacity:0.25;fill-rule:nonzero;"/>
                </g>
            </g>
        </g>
    </g>
</svg>
